<svg width="37" height="37" viewBox="0 0 37 37" fill="none" xmlns="http://www.w3.org/2000/svg">
<path d="M18.6709 0.585205C22.2277 0.585205 25.1709 9.8911 25.1709 9.8911C25.1709 9.8911 35.6188 9.82007 36.6836 13.5C38.1577 18.5945 30.1836 24 30.1836 24C30.1836 24 32.6141 33.4804 29.8509 36.0001C25.6709 38.0852 18.6709 32.0852 18.6709 32.0852C18.6709 32.0852 10.499 38.1284 7.73254 36.0001C4.96611 33.8718 6.78083 24.0852 6.78083 24.0852C6.78083 24.0852 -0.719082 18.5852 0.899757 13.4942C2.00698 9.58008 11.5833 9.8911 11.5833 9.8911C11.5833 9.8911 15.1206 0.585205 18.6709 0.585205Z" fill="#F5F5F5" fill-opacity="0.75"/>
</svg>
