<svg width="36" height="36" viewBox="0 0 36 36" fill="none" xmlns="http://www.w3.org/2000/svg">
<path d="M35.7679 16.1395C35.8767 15.8342 35.9436 15.5155 35.9669 15.1922C36.1185 13.8501 35.8722 11.4628 32.5691 10.4555C32.5085 10.9626 32.4853 11.4734 32.4996 11.9839C29.1587 11.0113 24.6052 11.0871 24.6052 11.0871C24.6052 11.0871 21.5516 1.35791 17.9991 1.35791C14.4466 1.35791 10.7993 10.9765 10.7993 10.9765C10.7993 10.9765 5.93947 10.8281 2.7501 12.066L2.58274 10.6513C-0.123487 11.9712 -0.0761201 14.608 0.0407181 15.5743V15.6374C0.0407181 15.6911 0.0407181 15.7385 0.0596648 15.7764C0.0754538 15.8743 0.0880849 15.928 0.0880849 15.928C0.82385 19.4015 6.05631 23.4845 6.05631 23.4845C6.05631 23.4845 4.19637 33.3589 6.9468 35.3484C9.69724 37.3378 17.9991 31.6853 17.9991 31.6853C17.9991 31.6853 26.2819 37.6851 29.0513 35.3484C31.8207 33.0116 29.2124 23.3203 29.2124 23.3203C29.2124 23.3203 34.6469 19.4236 35.7743 16.1395H35.7679Z" fill="#DBC92B"/>
<path d="M17.9991 0C21.4379 0 24.3968 9.40705 24.3968 9.40705C24.3968 9.40705 34.2712 9.23969 35.3006 12.5648C36.3301 15.89 28.6409 21.3624 28.6409 21.3624C28.6409 21.3624 31.366 30.6274 28.6945 32.9042C26.0231 35.1809 17.9991 29.3674 17.9991 29.3674C17.9991 29.3674 9.98464 34.8273 7.30999 32.9042C4.63534 30.9811 6.45107 21.4351 6.45107 21.4351C6.45107 21.4351 -0.366596 16.1047 0.703895 12.568C1.77439 9.03128 11.033 9.31232 11.033 9.31232C11.033 9.31232 14.5666 0 17.9991 0Z" fill="#FFEB3A"/>
<g style="mix-blend-mode:screen" opacity="0.61">
<path d="M24.3968 9.40705C24.3968 9.40705 21.4379 0 17.9991 0C14.5603 0 11.033 9.31232 11.033 9.31232C11.033 9.31232 1.77439 9.02496 0.703895 12.568C-0.366596 16.111 6.45107 21.4351 6.45107 21.4351C6.45107 21.4351 5.45637 26.6675 6.02477 30.1664C10.5216 29.1906 14.7535 27.2514 18.4286 24.4823C23.9673 20.3772 27.7661 15.0374 29.4208 9.72283C27.7555 9.50103 26.0768 9.39552 24.3968 9.40705Z" fill="#FFEB3A"/>
</g>
<g style="mix-blend-mode:screen" opacity="0.61">
<path d="M17.9991 0C14.5666 0 11.033 9.31232 11.033 9.31232C11.033 9.31232 1.77439 9.02496 0.703895 12.568C-0.366596 16.111 6.45107 21.4351 6.45107 21.4351C6.45107 21.4351 6.20476 22.7298 6.02793 24.4571C10.1529 23.0993 13.824 20.6311 16.6381 17.3236C19.8258 13.6994 21.8116 9.1762 22.3221 4.3767C21.1758 2.14414 19.6443 0 17.9991 0Z" fill="#FFEB3A"/>
</g>
<path d="M17.9993 2.21053C17.0709 1.39582 11.9995 9.47345 13.2278 9.75765C14.4562 10.0418 22.0065 5.74726 17.9993 2.21053Z" fill="#FFFDFF"/>
<path d="M3.3975 11.2827C3.3975 11.2827 0.239713 12.6784 2.25122 15.072C4.26274 17.4656 7.49947 10.329 3.3975 11.2827Z" fill="#FFFDFF"/>
<g style="mix-blend-mode:screen">
<path d="M6.45109 21.053C6.45109 21.053 0.80496 16.6448 0.596546 13.1807C0.39129 16.4932 5.76901 20.892 6.39109 21.3909C6.42898 21.173 6.45109 21.053 6.45109 21.053Z" fill="#FFEB3A"/>
<path d="M28.6406 20.9804L28.729 21.2961C29.5406 20.7056 35.6383 16.1553 35.3888 13.0291C35.1394 16.3637 28.6406 20.9804 28.6406 20.9804Z" fill="#FFEB3A"/>
<path d="M28.6946 32.5252C26.02 34.7988 17.9992 28.9758 17.9992 28.9758C17.9992 28.9758 9.98472 34.4451 7.31007 32.5252C6.20485 31.7294 5.86696 29.6295 5.85117 27.4412C5.82907 29.7653 6.14169 32.0673 7.31007 32.9073C9.98472 34.8272 17.9992 29.3674 17.9992 29.3674C17.9992 29.3674 26.02 35.1809 28.6946 32.9041C29.6072 32.1273 29.8914 30.5295 29.8662 28.7643C29.8441 30.3747 29.5409 31.8021 28.6946 32.5252Z" fill="#FFEB3A"/>
</g>
</svg>
