<svg width="158" height="113" viewBox="0 0 158 113" fill="none" xmlns="http://www.w3.org/2000/svg">
<g clip-path="url(#clip0_3197_5106)">
<path d="M82.8353 68.1878C82.8353 64.2152 79.7094 61.4538 75.0447 60.9936C74.8042 60.9694 42.8243 60.7998 42.8243 60.7998C40.3477 61.6961 38.4 63.6581 37.8229 66.2742C36.4764 72.3541 38.8569 76.5447 42.68 77.9012C42.68 77.9012 65.7392 77.3925 75.742 75.3578C80.4548 74.5827 82.8353 72.015 82.8353 68.1878Z" />
<path d="M75.309 79.33C70.5 79.0393 44.4592 80.1052 44.4592 80.1052C41.7661 81.0256 39.9868 84.0777 39.9868 87.1782C39.9868 93.1855 42.5837 95.3172 46.2145 96.601L72.4236 93.9364C72.7843 93.9364 74.78 93.7184 74.8762 93.7184C80.4546 93.1129 83.6286 90.4968 83.6286 86.5242C83.6286 82.2125 79.9256 79.5238 75.309 79.33Z" />
<path d="M77.2326 97.8851C75.2128 97.4248 73.0728 97.1826 72.4236 97.1826L54.1013 96.7466C51.3842 97.6186 49.172 99.9925 48.8835 103.505C48.3545 109.609 50.4464 111.789 53.8368 113.024C53.8368 113.024 74.0587 112.08 74.3232 112.08C79.1562 112.08 83.0756 108.858 83.0756 104.885C83.0756 102.512 81.9214 98.9509 77.2326 97.8851Z" />
<path d="M136.84 53.4605V57.2151C136.167 57.1666 135.638 57.1424 135.35 57.0939C131.406 56.4157 128.232 51.4015 125.78 48.2526C118.71 39.1932 119.023 36.0684 107.818 33.8884C95.1222 31.3934 73.674 0.315371 73.674 0.315371C64.9938 -1.81625 64.9938 7.60648 64.9938 7.60648C65.667 21.8738 80.3586 42.2937 80.3586 42.2937C80.3586 42.2937 33.3264 42.1968 11.8783 42.1968C11.3974 42.1968 8.70431 42.5844 8.39172 42.5844C3.75103 42.5844 0 46.3147 0 50.9413C0 55.1319 3.12586 58.62 7.18947 59.2013C7.18947 59.274 10.8203 59.8069 11.6618 59.8311C16.014 59.8796 26.0648 59.8311 30.417 59.8311C44.4833 59.8311 74.4675 59.6858 74.203 59.8796C83.0756 59.9765 83.9653 65.3055 84.0855 68.1396C84.2538 72.6451 81.3203 75.14 77.4972 76.1574C76.4152 76.6176 70.4279 77.6108 70.4279 77.6108C71.4619 77.7561 76.5835 78.4101 77.7376 78.6524C77.8338 78.6766 77.906 78.7008 78.0021 78.725C82.4505 79.2821 84.9271 82.5522 84.9271 86.5006C84.9271 90.8365 81.681 93.9128 76.848 94.6153C74.8282 94.9302 70.1875 95.3904 70.1875 95.3904C71.1493 95.5357 76.5113 96.5531 77.6895 96.8196C81.4887 97.4736 84.3981 100.744 84.3981 104.668C84.3981 108.955 80.9597 112.443 76.6556 112.637C76.6316 112.637 76.6316 112.637 76.6075 112.637C84.326 112.637 92.0204 112.637 99.7389 112.564C106.88 112.516 113.42 111.256 119.287 107.114C124.625 103.36 130.468 103.239 136.864 103.287V108.665H158V53.4363H136.84V53.4605Z" />
</g>
<defs>
<clipPath id="clip0_3197_5106">
<rect width="158" height="113" fill="white"/>
</clipPath>
</defs>
</svg>
