<svg  viewBox="0 0 44 70" fill="none" xmlns="http://www.w3.org/2000/svg">
<path d="M44 21.9685C44 30.3336 39.318 37.6066 32.428 41.3172C29.3246 42.9885 25.7732 43.937 22 43.937C18.2268 43.937 14.6754 42.9885 11.572 41.3172C4.68203 37.6066 0 30.3336 0 21.9685C0 9.83564 9.84974 0 22 0C34.1503 0 44 9.83564 44 21.9685Z" fill="#FA790E"/>
<path d="M22 43.937C18.2268 43.937 14.6754 42.9885 11.572 41.3172C19.1859 56.1705 21.1304 72.521 22 69.05C22.8696 65.579 24.8664 55.3727 32.428 41.3172C29.3246 42.9885 25.7732 43.937 22 43.937Z" fill="#FA790E"/>
<path d="M24.2794 12.8359C24.6543 12.4746 24.9132 12.0086 25.0227 11.4979C25.1323 10.9872 25.0875 10.4551 24.8941 9.97028C24.7007 9.48542 24.3676 9.06992 23.9376 8.77729C23.5076 8.48465 23.0005 8.32826 22.4815 8.32826C21.9624 8.32826 21.4553 8.48465 21.0253 8.77729C20.5954 9.06992 20.2622 9.48542 20.0688 9.97028C19.8755 10.4551 19.8307 10.9872 19.9402 11.4979C20.0498 12.0086 20.3087 12.4746 20.6836 12.8359C21.1659 13.3053 21.8106 13.5677 22.4815 13.5677C23.1523 13.5677 23.797 13.3053 24.2794 12.8359ZM23.1515 19.0443H24.2276C24.3024 19.0443 24.3741 19.0742 24.427 19.1274C24.4799 19.1806 24.5096 19.2528 24.5096 19.3281C24.5103 19.3842 24.4931 19.439 24.4604 19.4844L21.8994 23.8854C21.865 23.9424 21.8117 23.9854 21.7489 24.0067C21.6861 24.0281 21.6178 24.0265 21.5561 24.0023C21.4944 23.978 21.4431 23.9327 21.4112 23.8742C21.3794 23.8156 21.3691 23.7477 21.382 23.6823L21.7597 20.9818L20.4844 21.0052C20.41 21.0059 20.3384 20.977 20.2851 20.9248C20.2318 20.8727 20.2012 20.8014 20.1998 20.7266C20.1991 20.6745 20.2125 20.6231 20.2386 20.5781L22.7583 16.1797C22.7926 16.1262 22.8438 16.0859 22.9037 16.0653C22.9635 16.0446 23.0285 16.0448 23.0882 16.0659C23.1479 16.0869 23.1989 16.1275 23.2329 16.1813C23.2669 16.235 23.2819 16.2986 23.2756 16.362L23.1463 19.0443H23.1515ZM20.4896 34.2578H24.4734V36.9948C24.472 37.5262 24.2617 38.0354 23.8885 38.4112C23.5152 38.7869 23.0093 38.9986 22.4815 39C21.9536 38.9986 21.4477 38.7869 21.0745 38.4112C20.7012 38.0354 20.4909 37.5262 20.4896 36.9948V34.2578ZM21.783 25.4714H23.1748C23.9876 25.4734 24.7665 25.7996 25.341 26.3784C25.9155 26.9572 26.2389 27.7416 26.2402 28.5599V32.987C26.2402 33.1251 26.1857 33.2576 26.0887 33.3553C25.9917 33.4529 25.8601 33.5078 25.7228 33.5078H19.2427C19.1055 33.5078 18.9739 33.4529 18.8768 33.3553C18.7798 33.2576 18.7253 33.1251 18.7253 32.987V28.5599C18.728 27.7421 19.0518 26.9585 19.626 26.3799C20.2002 25.8014 20.9784 25.4748 21.7908 25.4714H21.783ZM23.167 26.513H21.7908C21.2526 26.5158 20.7372 26.7324 20.3569 27.1157C19.9766 27.4991 19.7621 28.0181 19.76 28.5599V32.4661H25.2081V28.5599C25.2067 28.0172 24.9921 27.4971 24.6112 27.1131C24.2302 26.7292 23.7138 26.5125 23.1748 26.5104L23.167 26.513ZM26.1988 13.0885C27.3479 13.3651 28.3713 14.0222 29.105 14.9544C29.8387 15.8866 30.24 17.0399 30.2447 18.2292V28.0208C30.243 28.7147 30.105 29.4015 29.8386 30.0415C29.5722 30.6815 29.1828 31.2621 28.6926 31.75C28.4231 32.0214 28.1256 32.2632 27.8053 32.4714V31.0703L27.914 30.9661C28.2993 30.5799 28.6052 30.1209 28.8143 29.6155C29.0234 29.1102 29.1314 28.5683 29.1324 28.0208V18.2292C29.1267 17.1402 28.7001 16.0962 27.9429 15.3185C27.1857 14.5407 26.1575 14.0902 25.0761 14.0625C24.3572 14.6046 23.4746 14.8805 22.5772 14.8438C21.2837 14.8438 20.5077 14.4948 19.8842 14.0625C18.8001 14.0849 17.7678 14.5334 17.0079 15.312C16.248 16.0906 15.8208 17.1376 15.8176 18.2292V28.0208C15.8188 29.1133 16.2461 30.1617 17.0076 30.9401L17.0335 30.9661L17.1421 31.0703V32.4714C16.824 32.2595 16.5291 32.0142 16.2626 31.7396L16.2315 31.7083C15.2653 30.7231 14.7226 29.3949 14.7208 28.0104V18.2292C14.7221 17.5352 14.8599 16.8484 15.1263 16.2083C15.3927 15.5682 15.7824 14.9876 16.2729 14.5C16.9609 13.8073 17.8257 13.3198 18.7719 13.0911C18.2298 12.567 17.5056 12.2773 16.7541 12.2839H13.3368C11.5544 12.2839 11.5544 9.57031 13.3368 9.57031H16.7437C19.2427 9.56771 19.0952 7 22.5849 7C25.7642 7 25.7513 9.56771 28.2192 9.56771H31.6287C33.4111 9.56771 33.4111 12.2813 31.6287 12.2813H28.2192C27.4674 12.2773 26.7433 12.5666 26.1988 13.0885Z" fill="white"/>
</svg>
