<svg width="340" height="340" viewBox="0 0 340 340" fill="none" xmlns="http://www.w3.org/2000/svg">
<path d="M179.333 161.289C179.333 155.94 179.667 150.591 179.667 145.911C179.667 143.57 182 141.23 184.333 140.561C196.333 136.215 197.667 124.848 197.667 112.144C197.667 103.786 192.333 75.0348 190 68.0141C189.667 66.6768 189.333 65.6739 189 65.0052C188.333 64.0023 187.333 64.6709 187.333 65.6739C187.333 80.7183 187 119.165 184.667 119.165C182 119.165 180.333 80.0496 180 65.3396C180 64.3366 179.333 63.668 179 63.668C178.333 63.668 178 64.3366 178 65.3396C178 80.3839 177.667 119.165 175 119.165C172.333 119.165 170.667 80.3839 170.333 65.3396C170.333 64.3366 169.667 63.668 169.333 63.668C168.667 63.668 168.333 64.3366 168.333 65.3396C168.333 80.3839 168 119.165 165.333 119.165C162 118.831 160.667 81.7212 160.333 66.3425C160.333 65.3396 159.333 65.0052 159 66.0082C158.667 66.6768 158.667 67.6798 158.333 68.6828C155 79.381 152.333 103.786 152.333 112.144C152.333 124.848 153.667 136.215 165.333 140.561C167.667 141.564 170 143.57 170 145.911C170 150.591 170.333 155.94 170.333 161.624C170.667 174.996 171.333 190.375 170 203.748C168.333 224.476 164 245.538 161.333 257.908C160 264.594 159 268.94 159 270.612C159 282.313 164.667 288.999 175 288.999C185.333 288.999 191 282.647 191 270.612C191 268.94 190 264.594 188.667 257.908C186 245.203 181.667 224.476 180 203.748C178.667 190.041 179 174.662 179.333 161.289Z" fill="#C4C4C4"/>
<path d="M242.666 288.999C237.666 288.999 230.333 285.99 230.333 279.638C230.333 276.964 230.667 269.609 231.333 259.914C232.333 238.183 234.333 201.742 234 175.999C232.666 175.331 232 173.993 232 172.322C232 170.985 232.666 169.313 234 168.644C233 166.973 231.666 165.97 229.333 164.298L229 163.964L228.667 163.63C226.333 127.857 224 87.0703 241.333 67.0112C242.333 66.0082 245 63.668 247.333 63.668H248C249 63.668 250 64.0023 250.667 64.6709C251.333 65.3396 251.666 66.0082 251.666 67.0112C249.333 102.115 250 137.887 251 168.644C252.666 169.313 253.333 170.985 253.333 172.322C253.333 173.659 252.666 174.662 251.666 175.665L255 279.638C255 285.99 248 288.999 242.666 288.999Z" fill="#C4C4C4"/>
<path d="M103.667 289C93.3333 289 87.6667 282.314 87.6667 270.612C87.6667 268.941 88.6667 264.595 90 257.908C92.6667 245.204 97 224.142 98.6667 203.414C99.6667 190.041 99.3333 174.663 99 160.956C99 155.272 98.6667 149.923 98.6667 145.243C98.6667 142.902 96.3333 140.562 94 139.893C82 135.882 74 124.515 74 111.811C74 103.453 77.3333 91.0828 82.6667 81.3876C86.3333 74.3669 93.6667 63 103.667 63C113.667 63 121 74.3669 124.667 81.3876C129.667 91.0828 133.333 103.453 133.333 111.811C133.333 124.515 125.333 136.216 113.333 140.228C111 140.896 108.667 143.237 108.667 145.577C108.667 150.257 108.667 155.272 108.333 160.956C108 174.663 107.667 190.041 108.667 203.414C110.333 224.142 114.667 245.204 117.333 257.908C118.667 264.595 119.667 268.941 119.667 270.612C119.667 282.648 114 289 103.667 289Z" fill="#C4C4C4"/>
<path d="M315.052 81.356C311.469 75.6015 307.609 70.0537 303.336 64.7816C272.324 25.3613 224.013 0 169.983 0C76.2217 0 0 76.2907 0 170.052C0 206.819 11.7847 240.932 31.7361 268.775C35.6643 274.254 39.9372 279.526 44.5201 284.522C75.567 318.601 120.328 340 169.983 340C263.744 340 340.034 263.778 340.034 170.017C340 137.558 330.869 107.2 315.052 81.356ZM47.9659 256.542C30.53 232.111 20.2959 202.236 20.2959 170.017C20.2959 87.4207 87.4551 20.2615 169.983 20.2615C217.397 20.2615 259.747 42.3837 287.21 76.8765L47.9659 256.542ZM169.983 319.739C126.979 319.739 88.1443 301.476 60.8189 272.324L298.684 93.6232C312.089 116.021 319.704 142.175 319.704 170.052C319.739 252.545 252.545 319.739 169.983 319.739Z" fill="#C4C4C4"/>
</svg>
