<svg width="284" height="284" viewBox="0 0 284 284" fill="none" xmlns="http://www.w3.org/2000/svg">
<path d="M109.907 85.0537C110.306 85.0557 110.691 84.902 110.979 84.6252C111.268 84.3484 111.437 83.9703 111.451 83.5709C111.451 83.2649 112.811 52.8686 125.918 42.0813C129.727 38.939 134.08 37.7963 139.126 38.5853C164.938 42.5778 164.013 83.0744 164 83.4757C164.011 83.8711 164.173 84.2473 164.452 84.5274C164.731 84.8075 165.107 84.9703 165.502 84.9825C165.898 84.9946 166.283 84.8553 166.579 84.5929C166.875 84.3305 167.059 83.9649 167.095 83.5709C167.16 76.1074 166.203 68.67 164.251 61.4658C160.007 46.3323 151.485 37.361 139.603 35.5178C136.849 35.0232 134.02 35.1403 131.317 35.8608C128.613 36.5813 126.101 37.8876 123.959 39.6871C117.953 44.6319 113.505 53.5352 110.737 66.1385C109.486 71.8405 108.694 77.6336 108.37 83.4621C108.355 83.8712 108.503 84.2695 108.78 84.5702C109.058 84.8709 109.443 85.0496 109.852 85.0673L109.907 85.0537Z" fill="#070707"/>
<path d="M216.734 216.853L216.734 216.853C216.869 217.767 216.806 218.7 216.548 219.587C216.29 220.474 215.845 221.296 215.241 221.995C214.637 222.694 213.89 223.256 213.05 223.64C212.21 224.025 211.297 224.224 210.373 224.224H92.0108L117.368 73.0527L195.711 74.3445L216.734 216.853Z" fill="#FCFBFA" stroke="#828181"/>
<path d="M173.945 197.015C170.935 197.015 167.92 197.015 164.904 197.015C161.926 196.994 159.042 195.965 156.723 194.095C154.763 192.564 153.27 190.516 152.411 188.183C151.877 186.809 151.596 185.35 151.58 183.876C151.58 177.972 151.58 172.075 151.58 166.182C151.557 164.372 151.905 162.576 152.602 160.906C153.299 159.235 154.331 157.725 155.634 156.468C157.639 154.477 160.217 153.165 163.007 152.717C163.563 152.621 164.127 152.574 164.691 152.577C170.739 152.577 176.781 152.487 182.817 152.577C188.556 152.683 192.655 155.497 195.131 160.646C195.937 162.388 196.335 164.291 196.293 166.21C196.293 171.921 196.293 177.632 196.293 183.337C196.331 185.405 195.883 187.453 194.987 189.317C194.091 191.182 192.771 192.81 191.133 194.073C188.791 195.988 185.853 197.023 182.828 196.998L173.945 197.015ZM173.479 158.394C173.697 158.032 173.815 157.619 173.821 157.196C173.828 156.774 173.723 156.357 173.516 155.988C173.31 155.619 173.01 155.311 172.646 155.096C172.283 154.881 171.869 154.765 171.446 154.761C170.97 154.731 170.495 154.845 170.085 155.088C169.674 155.332 169.346 155.693 169.144 156.126C168.925 156.55 168.848 157.033 168.923 157.505C168.997 157.976 169.22 158.412 169.559 158.748C169.767 158.972 169.773 159.04 169.458 159.13C167.776 159.617 166.195 160.405 164.792 161.454C161.724 163.663 159.579 166.926 158.767 170.618C158.347 172.586 158.305 174.615 158.644 176.598C158.694 176.919 158.834 177.042 159.205 176.958C159.817 176.812 160.44 176.733 161.064 176.632C162.434 176.413 163.81 176.2 165.174 175.975L170.228 175.139C172.047 174.847 173.872 174.577 175.691 174.268C177.511 173.959 179.24 173.707 181.009 173.398C182.429 173.168 183.844 172.932 185.265 172.707C186.686 172.483 187.972 172.258 189.33 172.073C190.088 171.966 190.094 172 189.931 171.247C189.931 171.169 189.886 171.096 189.875 171.017C189.516 168.946 188.703 166.981 187.494 165.261C186.31 163.524 184.781 162.048 183.002 160.927C181.019 159.656 178.779 158.839 176.444 158.534C175.461 158.401 174.469 158.354 173.479 158.394V158.394ZM166.381 190.198L168.313 188.121C168.453 187.977 168.633 187.877 168.829 187.834C170.028 187.59 171.171 187.123 172.199 186.459C172.258 186.409 172.335 186.385 172.412 186.391C173.294 186.464 174.18 186.464 175.062 186.391C176.007 186.374 176.948 186.261 177.87 186.054C179.161 185.785 180.447 185.493 181.744 185.235C183.182 184.948 184.625 184.673 186.062 184.426C186.347 184.385 186.608 184.243 186.798 184.027C186.853 183.982 186.895 183.923 186.921 183.856C186.947 183.79 186.956 183.718 186.946 183.647C186.937 183.576 186.909 183.509 186.867 183.452C186.824 183.395 186.768 183.349 186.703 183.32C186.406 183.134 186.058 183.046 185.709 183.067H163.933C163.714 183.056 163.497 183.117 163.315 183.241C162.131 184.072 161.839 184.993 162.428 186.352C162.493 186.47 162.517 186.607 162.495 186.74C162.474 186.873 162.409 186.996 162.31 187.088C161.799 187.705 161.288 188.317 160.811 188.952C160.412 189.48 159.997 189.895 159.261 189.609C159.138 189.558 158.964 189.609 158.84 189.581C158.707 189.532 158.563 189.524 158.425 189.557C158.287 189.59 158.162 189.663 158.065 189.766C157.212 190.434 156.347 191.08 155.482 191.731C155.303 191.866 155.28 191.984 155.482 192.147C155.87 192.489 156.24 192.854 156.605 193.191C158.378 194.621 160.477 195.591 162.715 196.016C162.804 196.034 162.897 196.031 162.985 196.006C163.073 195.98 163.154 195.933 163.22 195.87C165.101 194.376 166.999 192.905 168.886 191.423L170.211 190.367C168.908 190.114 167.678 190.305 166.353 190.198H166.381ZM174.242 178.07H154.775C154.477 178.07 154.135 178.07 154.084 178.407C154.034 178.743 153.888 179.204 154.354 179.53C154.938 179.91 155.5 180.322 156.038 180.765C156.279 180.963 156.585 181.067 156.897 181.057C163.497 181.057 170.095 181.057 176.691 181.057H191.487C191.68 181.09 191.879 181.054 192.048 180.956C192.688 180.467 193.345 180.001 193.991 179.518C194.141 179.378 194.247 179.198 194.299 178.999C194.351 178.8 194.345 178.591 194.283 178.395C194.131 178.058 193.823 178.12 193.536 178.12L174.242 178.07Z" fill="#FA790E"/>
<path d="M161.231 211.513C161.231 213.119 161.231 214.731 161.231 216.337C161.231 216.786 161.102 216.898 160.67 216.898C160.276 216.865 159.879 216.865 159.485 216.898C159.053 216.932 158.963 216.764 158.963 216.337C158.963 213.804 158.963 211.283 158.997 208.734C158.997 207.246 158.997 205.752 158.997 204.242C158.986 204.118 159.01 203.993 159.068 203.882C159.126 203.772 159.214 203.68 159.322 203.618C160.317 202.926 161.461 202.48 162.662 202.315C163.862 202.15 165.084 202.271 166.229 202.669C167.145 202.999 167.942 203.596 168.516 204.383C169.091 205.169 169.417 206.11 169.452 207.083C169.508 209.149 168.739 210.783 166.863 211.693C166.005 212.16 165.037 212.389 164.061 212.355C163.084 212.322 162.134 212.027 161.31 211.502C161.283 211.502 161.257 211.505 161.231 211.513V211.513ZM161.231 207.021V208.925C161.222 209.028 161.237 209.132 161.272 209.229C161.308 209.326 161.365 209.414 161.439 209.486C161.992 209.996 162.68 210.336 163.42 210.466C164.161 210.596 164.923 210.512 165.617 210.222C167.459 209.34 167.812 206.74 166.504 205.241C165.196 203.742 162.776 204 161.422 204.741C161.231 204.843 161.231 205.005 161.231 205.185V207.021Z" fill="#FA790E"/>
<path d="M197.484 207.617C196.299 207.617 195.109 207.617 193.918 207.617C193.537 207.617 193.48 207.723 193.565 208.094C194.042 210.183 196.013 210.868 197.804 210.419C198.54 210.231 199.214 209.853 199.758 209.324C199.921 209.167 199.994 209.155 200.168 209.324C200.485 209.629 200.821 209.914 201.173 210.177C201.415 210.363 201.387 210.497 201.173 210.677C200.17 211.578 198.913 212.145 197.574 212.3C196.089 212.528 194.573 212.198 193.318 211.373C191.807 210.318 191.251 208.802 191.279 206.994C191.286 205.92 191.662 204.881 192.344 204.052C193.026 203.223 193.973 202.654 195.025 202.44C197.271 201.979 199.618 202.479 200.898 204.764C201.29 205.506 201.501 206.329 201.516 207.168C201.516 207.533 201.398 207.634 201.05 207.628C199.865 207.611 198.652 207.617 197.484 207.617ZM196.361 205.932C197.17 205.932 197.978 205.932 198.787 205.932C199.23 205.932 199.202 205.786 199.051 205.472C198.88 205.138 198.643 204.844 198.353 204.607C198.063 204.371 197.727 204.196 197.366 204.096C196.675 203.86 195.921 203.882 195.245 204.159C194.569 204.435 194.016 204.948 193.688 205.601C193.542 205.91 193.638 205.938 193.913 205.932C194.721 205.932 195.53 205.932 196.339 205.932H196.361Z" fill="#FA790E"/>
<path d="M176.365 207.617C175.208 207.617 174.052 207.617 172.895 207.617C172.513 207.617 172.367 207.645 172.457 208.105C172.596 208.747 172.935 209.327 173.426 209.763C173.916 210.199 174.533 210.468 175.186 210.531C175.807 210.601 176.435 210.531 177.025 210.326C177.615 210.121 178.151 209.786 178.594 209.346C178.74 209.206 178.836 209.127 179.021 209.295C179.364 209.616 179.734 209.919 180.099 210.216C180.279 210.362 180.313 210.475 180.099 210.649C179.37 211.306 178.505 211.793 177.565 212.074C176.625 212.356 175.634 212.425 174.664 212.277C173.963 212.219 173.283 212.013 172.668 211.672C172.054 211.332 171.518 210.864 171.098 210.301C169.414 207.948 169.885 204.124 172.833 202.832C174.843 201.94 176.848 202.013 178.634 203.394C179.209 203.856 179.669 204.447 179.975 205.119C180.281 205.791 180.425 206.525 180.397 207.263C180.397 207.572 180.234 207.628 179.97 207.622H176.36L176.365 207.617ZM175.287 205.932C176.084 205.932 176.876 205.932 177.668 205.932C178.128 205.932 178.083 205.73 177.949 205.455C177.781 205.121 177.544 204.826 177.254 204.591C176.963 204.355 176.626 204.185 176.264 204.09C175.573 203.852 174.818 203.872 174.141 204.148C173.463 204.424 172.909 204.936 172.581 205.589C172.44 205.887 172.519 205.932 172.805 205.926C173.642 205.943 174.467 205.949 175.287 205.949V205.932Z" fill="#FA790E"/>
<path d="M156.117 206.415C155.955 205.522 155.927 204.663 154.994 204.321C154.501 204.101 153.959 204.014 153.422 204.068C152.653 204.145 151.905 204.364 151.215 204.714C150.996 204.837 150.89 204.815 150.783 204.573C150.676 204.332 150.474 204.012 150.317 203.697C150.031 203.175 150.031 203.175 150.564 202.956C152.115 202.245 153.865 202.09 155.517 202.518C156.965 202.922 158.184 204.012 158.122 205.814C158.06 207.448 158.122 209.082 158.122 210.716C158.144 210.847 158.119 210.982 158.051 211.096C157.983 211.21 157.877 211.296 157.751 211.34C155.781 212.3 153.731 212.704 151.575 212.019C149.733 211.457 148.683 209.998 149.082 207.982C149.196 207.477 149.441 207.012 149.792 206.631C150.143 206.251 150.587 205.969 151.081 205.814C151.715 205.542 152.396 205.398 153.086 205.389C153.776 205.38 154.46 205.508 155.101 205.764C155.469 205.931 155.812 206.15 156.117 206.415ZM155.927 209.071C155.927 208.105 155.927 207.976 155.41 207.679C154.944 207.35 154.405 207.141 153.839 207.067C153.274 206.994 152.699 207.059 152.164 207.257C151.898 207.345 151.66 207.502 151.474 207.713C151.289 207.924 151.164 208.18 151.111 208.456C151.058 208.731 151.08 209.016 151.175 209.28C151.269 209.544 151.432 209.778 151.648 209.958C152.636 210.795 153.804 210.683 154.933 210.396C155.943 210.138 155.927 210.076 155.927 209.071V209.071Z" fill="#FA790E"/>
<path d="M191.167 202.524C189.679 203.843 188.275 205.101 186.854 206.342C186.59 206.567 186.602 206.702 186.854 206.949C188.309 208.515 189.74 210.099 191.183 211.677C191.285 211.789 191.425 211.879 191.431 212.092C190.616 212.092 189.813 212.092 189.01 212.092C188.909 212.087 188.81 212.056 188.722 212.003C188.635 211.951 188.562 211.877 188.511 211.789C187.483 210.627 186.467 209.447 185.422 208.291C185.282 208.133 185.186 207.785 184.861 207.92C184.684 207.973 184.53 208.086 184.428 208.24C184.325 208.394 184.28 208.579 184.299 208.762C184.344 209.728 184.327 210.694 184.372 211.66C184.372 212.014 184.266 212.103 183.946 212.087C183.502 212.058 183.058 212.058 182.615 212.087C182.25 212.115 182.166 211.991 182.166 211.643C182.166 209.296 182.166 206.949 182.166 204.607C182.166 203.338 182.166 202.069 182.166 200.8C182.166 200.469 182.255 200.345 182.587 200.362C183.032 200.385 183.478 200.385 183.923 200.362C184.243 200.362 184.316 200.474 184.311 200.772C184.311 202.49 184.282 204.203 184.277 205.91C184.277 205.994 184.238 206.101 184.35 206.196L185.989 204.658L188.101 202.698C188.194 202.59 188.324 202.522 188.466 202.507C189.342 202.53 190.229 202.524 191.167 202.524Z" fill="#FA790E"/>
<path d="M147.767 205.427C147.767 207.521 147.767 209.616 147.767 211.699C147.767 212.036 147.671 212.103 147.374 212.092C146.869 212.092 146.358 212.092 145.847 212.092C145.493 212.092 145.442 211.968 145.442 211.654C145.442 207.532 145.442 203.416 145.442 199.301C145.442 198.823 145.341 198.683 144.853 198.705C143.87 198.75 142.887 198.705 141.899 198.705C141.613 198.705 141.5 198.632 141.517 198.335C141.517 197.908 141.517 197.476 141.517 197.049C141.517 196.807 141.607 196.718 141.854 196.718C145.025 196.718 148.196 196.718 151.366 196.718C151.608 196.718 151.709 196.796 151.698 197.049C151.698 197.476 151.698 197.902 151.698 198.329C151.698 198.632 151.602 198.711 151.316 198.705C150.271 198.705 149.221 198.705 148.177 198.705C147.823 198.705 147.716 198.79 147.722 199.155C147.722 201.249 147.722 203.343 147.722 205.427H147.767Z" fill="#FA790E"/>
<path d="M101.561 73.8516L116.946 72.5457L91.42 224.724H76.1777C75.4534 224.722 74.7387 224.559 74.0853 224.247C73.432 223.934 72.8565 223.48 72.4005 222.917C71.9446 222.355 71.6198 221.697 71.4496 220.994C71.2794 220.29 71.2681 219.557 71.4166 218.848L101.561 73.8516Z" fill="#828181"/>
<path d="M126.931 84.7273C127.331 84.7258 127.715 84.5701 128.002 84.2926C128.29 84.015 128.459 83.6371 128.475 83.2377C128.475 82.9316 129.835 52.5422 142.942 41.7481C144.744 40.2204 146.865 39.1144 149.149 38.5107C151.433 37.9071 153.822 37.821 156.144 38.2589C181.99 42.2514 181.031 82.748 181.017 83.1493C181.028 83.5447 181.19 83.9209 181.469 84.201C181.749 84.4811 182.124 84.6439 182.52 84.656C182.915 84.6682 183.3 84.5288 183.596 84.2664C183.892 84.0041 184.077 83.6385 184.112 83.2445C184.181 75.7785 183.225 68.3383 181.269 61.1326C177.025 45.9991 168.502 37.0346 156.62 35.1914C153.866 34.6968 151.038 34.8139 148.334 35.5344C145.631 36.2549 143.119 37.5612 140.976 39.3607C134.971 44.3055 130.522 53.2087 127.754 65.8121C126.503 71.5141 125.712 77.3072 125.387 83.1357C125.373 83.5459 125.521 83.9452 125.8 84.2461C126.079 84.547 126.467 84.7249 126.877 84.7409L126.931 84.7273Z" fill="#020202"/>
<path d="M142.003 0C63.5744 0 0 63.5744 0 141.997C0 220.419 63.5744 284 142.003 284C220.432 284 284 220.426 284 141.997C284 63.5676 220.426 0 142.003 0ZM21.2617 141.997C21.2628 119.123 27.7612 96.7199 40.0004 77.3961C52.2396 58.0723 69.7161 42.6225 90.3951 32.8457C111.074 23.0688 134.105 19.367 156.806 22.1713C179.507 24.9756 200.945 34.1706 218.623 48.6857L50.1957 220.426C31.4518 198.602 21.1821 170.765 21.2617 141.997ZM227.35 227.37C206.154 248.562 177.835 261.115 147.899 262.587C117.963 264.059 88.5488 254.345 65.3768 235.335L233.804 63.5744C253.539 86.677 263.837 116.371 262.645 146.732C261.452 177.092 248.856 205.887 227.37 227.37H227.35Z" fill="#FA790E"/>
</svg>
