<svg width="150" height="150" viewBox="0 0 150 150" fill="none" xmlns="http://www.w3.org/2000/svg">
<path fill-rule="evenodd" clip-rule="evenodd" d="M41.4706 0.0452955C35.0346 0.838031 30.3608 2.17255 25.3489 4.64812C18.9975 7.78563 13.3118 12.5569 8.97343 18.3905C4.19921 24.8097 1.50262 31.5214 0.263606 40.069C-0.0878688 42.4939 -0.0878688 107.456 0.263606 109.881C1.58132 118.971 4.82347 126.505 10.3372 133.291C11.1648 134.309 11.9145 135.142 12.0036 135.142C12.0036 135.142 13.2952 134.274 14.6761 133.213C16.057 132.152 18.2823 130.446 19.621 129.422L22.0554 127.561L23.6379 127.782C24.5085 127.904 25.8245 128.065 26.5627 128.141L27.9051 128.278L28.8704 127.071C29.4013 126.408 30.8737 124.583 32.1423 123.017C33.4109 121.451 34.8153 119.702 35.2636 119.131L36.0785 118.092L35.6359 117.294C34.913 115.989 34.3832 113.746 34.4878 112.434C34.6567 110.318 35.8218 108.411 37.9102 106.832L39.097 105.935L77.1658 105.937C114.1 105.939 115.257 105.95 115.994 106.286C117.753 107.09 117.995 108.075 116.741 109.325L115.965 110.098L112.039 110.868C93.9873 114.407 91.0077 115.007 87.847 115.739C83.4011 116.77 77.5215 117.318 71.7796 117.237L68.3105 117.189L67.3975 117.783C65.0446 119.316 61.4522 120.752 57.4772 121.749L55.7733 122.177L52.1934 126.042L48.6134 129.906L50.0632 129.959C50.8603 129.988 53.8511 130.07 56.7091 130.143L61.9054 130.274L60.7259 131.207C60.0772 131.719 56.835 134.276 53.5211 136.889C53.5211 136.889 42.7668 145.968 41.5 147C40.3305 147.953 38.5 149.5 38.5 149.5C38.5 149.5 104.535 150.134 108.114 149.84C128.852 148.135 145.894 132.42 149.356 111.81C150.018 107.864 150.043 106.313 149.973 73.5053C149.913 45.2817 149.87 41.1307 149.615 39.5178C147.924 28.7838 143.319 19.8056 135.783 12.5488C129.142 6.15423 121.224 2.19 111.583 0.432569L109.392 0.0331699L75.7051 0.00542857C57.1774 -0.00981988 41.7718 0.00818484 41.4706 0.0452955ZM67.8111 10.7387C69.1328 11.1526 70.7348 12.1956 71.622 13.2198C73.3604 15.2271 73.9658 18.206 73.1707 20.8403C72.9552 21.5541 72.6978 22.1884 72.5988 22.25C72.4997 22.3117 72.4186 22.4519 72.4186 22.5616C72.4186 22.6968 72.84 22.7256 73.7268 22.6507C75.5304 22.4985 80.6269 22.8245 83.3507 23.2661C102.438 26.361 117.864 38.5902 124.824 56.1441C126.298 59.8607 127.65 65.0841 127.793 67.6073L127.833 68.3229L124.273 68.9166C120.988 69.4645 111.248 71.054 107.384 71.6728C106.48 71.8175 101.961 72.5566 97.3414 73.315C92.722 74.0736 87.8744 74.8637 86.5689 75.071C85.2634 75.2782 82.7164 75.691 80.9088 75.9881C74.6153 77.0229 66.4611 78.3564 62.9242 78.9292C57.7337 79.7699 48.8139 81.2251 44.3006 81.9678C42.1416 82.3232 39.1426 82.8122 37.6363 83.0547C36.13 83.2972 32.2506 83.9307 29.0156 84.4623C25.7803 84.994 23.087 85.3822 23.0302 85.3253C22.8143 85.1078 22.1907 80.1849 22.0454 77.5471C21.2917 63.8725 25.9131 50.8044 35.2026 40.3411C38.0334 37.1527 41.7862 33.9441 45.8385 31.248C48.5054 29.4735 54.0824 26.753 57.0815 25.7635C58.5376 25.2831 59.8382 24.8538 59.9715 24.8095C60.1343 24.7555 60.0346 24.5773 59.6678 24.2666C58.4765 23.258 57.4597 21.2063 57.1861 19.2589C57.0309 18.1538 57.3762 16.1748 57.9229 15.0376C58.8509 13.1066 61.1071 11.1882 63.078 10.654C64.3655 10.3051 66.5516 10.3442 67.8111 10.7387ZM142.083 89.4804C142.488 89.8875 142.531 90.0808 142.531 91.4759V93.0206L141.299 93.9314C140.621 94.4324 138.805 95.7664 137.264 96.8961L134.461 98.95H74.9783H15.4957L13.4261 97.4344C12.2879 96.6007 10.4911 95.2902 9.43318 94.5221L7.50984 93.1253L7.45671 91.5106C7.40887 90.0556 7.44356 89.8529 7.808 89.4625L8.2126 89.0294H74.9237H141.635L142.083 89.4804Z" fill="#FA790E"/>
<path d="M67.8111 10.7387C69.1328 11.1526 70.7348 12.1956 71.622 13.2198C73.3604 15.2271 73.9658 18.206 73.1707 20.8403C72.9552 21.5541 72.6978 22.1884 72.5988 22.25C72.4997 22.3117 72.4186 22.4519 72.4186 22.5616C72.4186 22.6968 72.84 22.7256 73.7268 22.6507C75.5304 22.4985 80.6269 22.8245 83.3507 23.2661C102.438 26.361 117.864 38.5902 124.824 56.1441C126.298 59.8607 127.65 65.0841 127.793 67.6073L127.833 68.3229L124.273 68.9166C120.988 69.4645 111.248 71.054 107.384 71.6728C106.48 71.8175 101.961 72.5566 97.3414 73.315C92.722 74.0736 87.8744 74.8637 86.5689 75.071C85.2634 75.2782 82.7164 75.691 80.9088 75.9881C74.6153 77.0229 66.4611 78.3564 62.9242 78.9292C57.7337 79.7699 48.8139 81.2251 44.3006 81.9678C42.1416 82.3232 39.1426 82.8122 37.6363 83.0547C36.13 83.2972 32.2506 83.9307 29.0156 84.4623C25.7803 84.994 23.087 85.3822 23.0302 85.3253C22.8143 85.1078 22.1907 80.1849 22.0454 77.5471C21.2917 63.8725 25.9131 50.8044 35.2026 40.3411C38.0334 37.1527 41.7862 33.9441 45.8385 31.248C48.5054 29.4735 54.0824 26.753 57.0815 25.7635C58.5376 25.2831 59.8382 24.8538 59.9715 24.8095C60.1343 24.7555 60.0346 24.5773 59.6678 24.2666C58.4765 23.258 57.4597 21.2063 57.1861 19.2589C57.0309 18.1538 57.3762 16.1748 57.9229 15.0376C58.8509 13.1066 61.1071 11.1882 63.078 10.654C64.3655 10.3051 66.5516 10.3442 67.8111 10.7387Z" fill="white"/>
<path d="M142.083 89.4804C142.488 89.8875 142.531 90.0808 142.531 91.4759V93.0206L141.299 93.9314C140.621 94.4324 138.805 95.7664 137.264 96.8961L134.461 98.95H74.9783H15.4957L13.4261 97.4344C12.2879 96.6007 10.4911 95.2902 9.43318 94.5221L7.50984 93.1253L7.45671 91.5106C7.40887 90.0556 7.44356 89.8529 7.808 89.4625L8.2126 89.0294H74.9237H141.635L142.083 89.4804Z" fill="white"/>
<path d="M14.6761 133.213C13.2952 134.274 12.0036 135.142 12.0036 135.142C12.0927 135.142 23 148 38.5 149.5C38.5 149.5 40.3305 147.953 41.5 147C42.7668 145.968 53.5211 136.889 53.5211 136.889C56.835 134.276 60.0772 131.719 60.7259 131.207L61.9054 130.274L56.7091 130.143C53.8511 130.07 50.8603 129.988 50.0632 129.959L48.6134 129.906L52.1934 126.042L55.7733 122.177L57.4772 121.749C61.4522 120.752 65.0446 119.316 67.3975 117.783L68.3105 117.189L71.7796 117.237C77.5215 117.318 83.4011 116.77 87.847 115.739C91.0077 115.007 93.9873 114.407 112.039 110.868L115.965 110.098L116.741 109.325C117.995 108.075 117.753 107.09 115.994 106.286C115.257 105.95 114.1 105.939 77.1658 105.937L39.097 105.935L37.9102 106.832C35.8218 108.411 34.6567 110.318 34.4878 112.434C34.3832 113.746 34.913 115.989 35.6359 117.294L36.0785 118.092L35.2636 119.131C34.8153 119.702 33.4109 121.451 32.1423 123.017C30.8737 124.583 29.4013 126.408 28.8704 127.071L27.9051 128.278L26.5627 128.141C25.8245 128.065 24.5085 127.904 23.6379 127.782L22.0554 127.561L19.621 129.422C18.2823 130.446 16.057 132.152 14.6761 133.213Z" fill="white"/>
</svg>
